<svg width="237" height="72" viewBox="0 0 237 72" fill="none" xmlns="http://www.w3.org/2000/svg">
<rect y="12" width="48" height="48" rx="6" fill="#4E4957"/>
<path d="M76.138 49.408C74.574 49.408 73.146 49.1473 71.854 48.626C70.562 48.1047 69.4627 47.334 68.556 46.314C67.6493 45.2713 66.9467 43.9907 66.448 42.472C65.9493 40.9307 65.7 39.1513 65.7 37.134C65.7 35.1167 65.9493 33.3487 66.448 31.83C66.9467 30.2887 67.6493 29.008 68.556 27.988C69.4627 26.9453 70.562 26.1633 71.854 25.642C73.146 25.1207 74.574 24.86 76.138 24.86C77.702 24.86 79.13 25.1207 80.422 25.642C81.714 26.1633 82.8133 26.9453 83.72 27.988C84.6267 29.008 85.3293 30.2887 85.828 31.83C86.3267 33.3487 86.576 35.1167 86.576 37.134C86.576 39.1513 86.3267 40.9307 85.828 42.472C85.3293 43.9907 84.6267 45.2713 83.72 46.314C82.8133 47.334 81.714 48.1047 80.422 48.626C79.13 49.1473 77.702 49.408 76.138 49.408ZM76.138 44.818C77.702 44.818 78.9147 44.308 79.776 43.288C80.66 42.268 81.102 40.806 81.102 38.902V35.366C81.102 33.462 80.66 32 79.776 30.98C78.9147 29.96 77.702 29.45 76.138 29.45C74.574 29.45 73.35 29.96 72.466 30.98C71.6047 32 71.174 33.462 71.174 35.366V38.902C71.174 40.806 71.6047 42.268 72.466 43.288C73.35 44.308 74.574 44.818 76.138 44.818ZM90.0575 31.15H95.0895V34.142H95.2595C95.5088 33.1447 96.0755 32.3287 96.9595 31.694C97.8662 31.0593 98.8975 30.742 100.053 30.742C102.32 30.742 104.031 31.5353 105.187 33.122C106.343 34.7087 106.921 37.0207 106.921 40.058C106.921 43.0953 106.343 45.4187 105.187 47.028C104.031 48.6147 102.32 49.408 100.053 49.408C99.4642 49.408 98.9088 49.3173 98.3875 49.136C97.8662 48.9773 97.3902 48.7507 96.9595 48.456C96.5515 48.1387 96.2002 47.776 95.9055 47.368C95.6108 46.9373 95.3955 46.484 95.2595 46.008H95.0895V55.8H90.0575V31.15ZM98.3875 45.328C99.3395 45.328 100.121 44.9993 100.733 44.342C101.368 43.662 101.685 42.7553 101.685 41.622V38.528C101.685 37.3947 101.368 36.4993 100.733 35.842C100.121 35.162 99.3395 34.822 98.3875 34.822C97.4355 34.822 96.6422 35.06 96.0075 35.536C95.3955 35.9893 95.0895 36.624 95.0895 37.44V42.71C95.0895 43.526 95.3955 44.172 96.0075 44.648C96.6422 45.1013 97.4355 45.328 98.3875 45.328ZM117.425 49.408C116.11 49.408 114.932 49.1927 113.889 48.762C112.869 48.3313 111.996 47.708 111.271 46.892C110.568 46.076 110.024 45.09 109.639 43.934C109.254 42.778 109.061 41.486 109.061 40.058C109.061 38.63 109.254 37.338 109.639 36.182C110.024 35.026 110.568 34.0513 111.271 33.258C111.996 32.442 112.869 31.8187 113.889 31.388C114.932 30.9573 116.11 30.742 117.425 30.742C118.74 30.742 119.907 30.9573 120.927 31.388C121.97 31.8187 122.842 32.442 123.545 33.258C124.27 34.0513 124.826 35.026 125.211 36.182C125.596 37.338 125.789 38.63 125.789 40.058C125.789 41.486 125.596 42.778 125.211 43.934C124.826 45.09 124.27 46.076 123.545 46.892C122.842 47.708 121.97 48.3313 120.927 48.762C119.907 49.1927 118.74 49.408 117.425 49.408ZM117.425 45.43C118.422 45.43 119.193 45.124 119.737 44.512C120.281 43.9 120.553 43.0273 120.553 41.894V38.256C120.553 37.1227 120.281 36.25 119.737 35.638C119.193 35.026 118.422 34.72 117.425 34.72C116.428 34.72 115.657 35.026 115.113 35.638C114.569 36.25 114.297 37.1227 114.297 38.256V41.894C114.297 43.0273 114.569 43.9 115.113 44.512C115.657 45.124 116.428 45.43 117.425 45.43ZM127.529 49V45.022L136.403 35.06H127.835V31.15H142.251V35.094L133.343 45.09H142.489V49H127.529ZM156.202 46.008H156.032C155.896 46.484 155.681 46.9373 155.386 47.368C155.092 47.776 154.729 48.1387 154.298 48.456C153.89 48.7507 153.414 48.9773 152.87 49.136C152.349 49.3173 151.805 49.408 151.238 49.408C148.972 49.408 147.26 48.6147 146.104 47.028C144.948 45.4187 144.37 43.0953 144.37 40.058C144.37 37.0207 144.948 34.7087 146.104 33.122C147.26 31.5353 148.972 30.742 151.238 30.742C152.394 30.742 153.414 31.0593 154.298 31.694C155.205 32.3287 155.783 33.1447 156.032 34.142H156.202V23.84H161.234V49H156.202V46.008ZM152.904 45.328C153.856 45.328 154.638 45.1013 155.25 44.648C155.885 44.172 156.202 43.526 156.202 42.71V37.44C156.202 36.624 155.885 35.9893 155.25 35.536C154.638 35.06 153.856 34.822 152.904 34.822C151.952 34.822 151.159 35.162 150.524 35.842C149.912 36.4993 149.606 37.3947 149.606 38.528V41.622C149.606 42.7553 149.912 43.662 150.524 44.342C151.159 44.9993 151.952 45.328 152.904 45.328ZM178.572 49C177.665 49 176.906 48.7167 176.294 48.15C175.705 47.5833 175.331 46.824 175.172 45.872H174.968C174.696 47.028 174.095 47.912 173.166 48.524C172.237 49.1133 171.092 49.408 169.732 49.408C167.941 49.408 166.57 48.932 165.618 47.98C164.666 47.028 164.19 45.77 164.19 44.206C164.19 42.3247 164.87 40.9307 166.23 40.024C167.613 39.0947 169.483 38.63 171.84 38.63H174.662V37.508C174.662 36.6467 174.435 35.9667 173.982 35.468C173.529 34.9467 172.769 34.686 171.704 34.686C170.707 34.686 169.913 34.9013 169.324 35.332C168.735 35.7627 168.247 36.25 167.862 36.794L164.87 34.142C165.595 33.0767 166.502 32.2493 167.59 31.66C168.701 31.048 170.197 30.742 172.078 30.742C174.617 30.742 176.521 31.2973 177.79 32.408C179.059 33.5187 179.694 35.1393 179.694 37.27V45.09H181.36V49H178.572ZM171.602 45.906C172.441 45.906 173.155 45.7247 173.744 45.362C174.356 44.9993 174.662 44.41 174.662 43.594V41.486H172.214C170.242 41.486 169.256 42.1547 169.256 43.492V44.002C169.256 44.6593 169.46 45.1467 169.868 45.464C170.276 45.7587 170.854 45.906 171.602 45.906ZM184.177 23.84H189.209V38.698H189.413L191.623 35.4L195.193 31.15H200.769L194.819 37.984L201.449 49H195.465L191.453 41.452L189.209 43.968V49H184.177V23.84ZM216.432 49C215.526 49 214.766 48.7167 214.154 48.15C213.565 47.5833 213.191 46.824 213.032 45.872H212.828C212.556 47.028 211.956 47.912 211.026 48.524C210.097 49.1133 208.952 49.408 207.592 49.408C205.802 49.408 204.43 48.932 203.478 47.98C202.526 47.028 202.05 45.77 202.05 44.206C202.05 42.3247 202.73 40.9307 204.09 40.024C205.473 39.0947 207.343 38.63 209.7 38.63H212.522V37.508C212.522 36.6467 212.296 35.9667 211.842 35.468C211.389 34.9467 210.63 34.686 209.564 34.686C208.567 34.686 207.774 34.9013 207.184 35.332C206.595 35.7627 206.108 36.25 205.722 36.794L202.73 34.142C203.456 33.0767 204.362 32.2493 205.45 31.66C206.561 31.048 208.057 30.742 209.938 30.742C212.477 30.742 214.381 31.2973 215.65 32.408C216.92 33.5187 217.554 35.1393 217.554 37.27V45.09H219.22V49H216.432ZM209.462 45.906C210.301 45.906 211.015 45.7247 211.604 45.362C212.216 44.9993 212.522 44.41 212.522 43.594V41.486H210.074C208.102 41.486 207.116 42.1547 207.116 43.492V44.002C207.116 44.6593 207.32 45.1467 207.728 45.464C208.136 45.7587 208.714 45.906 209.462 45.906Z" fill="#9590A0"/>
<path d="M24.0023 49.408C22.4383 49.408 21.0103 49.1473 19.7183 48.626C18.4263 48.1047 17.3269 47.334 16.4203 46.314C15.5136 45.2713 14.8109 43.9907 14.3123 42.472C13.8136 40.9307 13.5643 39.1513 13.5643 37.134C13.5643 35.1167 13.8136 33.3487 14.3123 31.83C14.8109 30.2887 15.5136 29.008 16.4203 27.988C17.3269 26.9453 18.4263 26.1633 19.7183 25.642C21.0103 25.1207 22.4383 24.86 24.0023 24.86C25.5663 24.86 26.9943 25.1207 28.2863 25.642C29.5783 26.1633 30.6776 26.9453 31.5843 27.988C32.4909 29.008 33.1936 30.2887 33.6923 31.83C34.1909 33.3487 34.4403 35.1167 34.4403 37.134C34.4403 39.1513 34.1909 40.9307 33.6923 42.472C33.1936 43.9907 32.4909 45.2713 31.5843 46.314C30.6776 47.334 29.5783 48.1047 28.2863 48.626C26.9943 49.1473 25.5663 49.408 24.0023 49.408ZM24.0023 44.818C25.5663 44.818 26.7789 44.308 27.6403 43.288C28.5243 42.268 28.9663 40.806 28.9663 38.902V35.366C28.9663 33.462 28.5243 32 27.6403 30.98C26.7789 29.96 25.5663 29.45 24.0023 29.45C22.4383 29.45 21.2143 29.96 20.3303 30.98C19.4689 32 19.0383 33.462 19.0383 35.366V38.902C19.0383 40.806 19.4689 42.268 20.3303 43.288C21.2143 44.308 22.4383 44.818 24.0023 44.818Z" fill="black"/>
</svg>
